<svg xmlns="http://www.w3.org/2000/svg" viewBox="0 0 512 512"><defs><linearGradient id="tb-sky" x1="0" y1="0" x2="0" y2="1"><stop offset="0" stop-color="#7566F5"/><stop offset="1" stop-color="#4532C9"/></linearGradient></defs><rect width="512" height="512" rx="116" fill="url(#tb-sky)"/><circle cx="256" cy="250" r="214" fill="#fff" opacity=".1"/><g transform="translate(256 262) scale(1) translate(-256 -270)"><path transform="translate(432 92) scale(2.5) translate(-12 -12)" d="M12 1.8l3.1 6.5 7.1.9-5.2 4.9 1.3 7.1L12 17.8 5.7 21.2 7 14.1 1.8 9.2l7.1-.9z" fill="#FFD23F" stroke="#FFD23F" stroke-width="1.6" stroke-linejoin="round"/><path transform="translate(74 150) scale(1.3) translate(-12 -12)" d="M12 1.8l3.1 6.5 7.1.9-5.2 4.9 1.3 7.1L12 17.8 5.7 21.2 7 14.1 1.8 9.2l7.1-.9z" fill="#fff" stroke="#fff" stroke-width="1.6" stroke-linejoin="round"/><path transform="translate(452 196) scale(1) translate(-12 -12)" d="M12 1.8l3.1 6.5 7.1.9-5.2 4.9 1.3 7.1L12 17.8 5.7 21.2 7 14.1 1.8 9.2l7.1-.9z" fill="#fff" stroke="#fff" stroke-width="1.6" stroke-linejoin="round"/><rect x="104" y="238" width="304" height="70" rx="18" fill="#A85C0C"/><g transform="translate(166 190) rotate(-13)"><rect x="-56" y="-50" width="112" height="112" rx="22" fill="#C73524"/><rect x="-56" y="-56" width="112" height="108" rx="22" fill="#F4553F"/><rect x="-40" y="-44" width="80" height="9" rx="4.5" fill="#fff" opacity=".3"/><g transform="translate(-19.8 -32)"><path transform="translate(0 0) scale(0.66)" d="M19 27 33 10V91" fill="none" stroke="#fff" stroke-width="17" stroke-linecap="round" stroke-linejoin="round"/></g></g><g transform="translate(350 196) rotate(14)"><rect x="-56" y="-50" width="112" height="112" rx="22" fill="#1583C4"/><rect x="-56" y="-56" width="112" height="108" rx="22" fill="#22A7F0"/><rect x="-40" y="-44" width="80" height="9" rx="4.5" fill="#fff" opacity=".3"/><g transform="translate(-19.8 -32)"><path transform="translate(0 0) scale(0.66)" d="M11 19C22 4 51 6 50 28 49 43 36 48 25 48 40 48 53 56 52 71 50 95 19 97 9 81" fill="none" stroke="#fff" stroke-width="17" stroke-linecap="round" stroke-linejoin="round"/></g></g><g transform="translate(258 142) rotate(4)"><rect x="-56" y="-50" width="112" height="112" rx="22" fill="#208F4C"/><rect x="-56" y="-56" width="112" height="108" rx="22" fill="#34B869"/><rect x="-40" y="-44" width="80" height="9" rx="4.5" fill="#fff" opacity=".3"/><g transform="translate(-19.8 -32)"><path transform="translate(0 0) scale(0.66)" d="M11 29C11 3 51 3 50 30 49 50 22 66 11 91H51" fill="none" stroke="#fff" stroke-width="17" stroke-linecap="round" stroke-linejoin="round"/></g></g><rect x="96" y="270" width="320" height="186" rx="34" fill="#E79F10"/><rect x="96" y="262" width="320" height="182" rx="34" fill="#FFC730"/><rect x="96" y="286" width="320" height="16" fill="#E79F10" opacity=".55"/><rect x="78" y="238" width="356" height="54" rx="24" fill="#FFDA6B"/><rect x="100" y="250" width="312" height="9" rx="4.5" fill="#fff" opacity=".45"/><circle cx="168" cy="392" r="19" fill="#FF8C7A" opacity=".6"/><circle cx="344" cy="392" r="19" fill="#FF8C7A" opacity=".6"/><circle cx="206" cy="354" r="18" fill="#2B2350"/><circle cx="306" cy="354" r="18" fill="#2B2350"/><circle cx="212" cy="347" r="6" fill="#fff"/><circle cx="312" cy="347" r="6" fill="#fff"/><path d="M220 392Q256 426 292 392" fill="none" stroke="#2B2350" stroke-width="13" stroke-linecap="round"/></g></svg>